<?xml version="1.0" standalone="no"?>
<!DOCTYPE svg PUBLIC "-//W3C//DTD SVG 20010904//EN"
 "http://www.w3.org/TR/2001/REC-SVG-20010904/DTD/svg10.dtd">
<svg version="1.0" xmlns="http://www.w3.org/2000/svg"
 width="260.000000pt" height="260.000000pt" viewBox="0 0 260.000000 260.000000"
 preserveAspectRatio="xMidYMid meet">
<metadata>
Created by potrace 1.11, written by Peter Selinger 2001-2013
</metadata>
<g transform="translate(0.000000,260.000000) scale(0.100000,-0.100000)"
fill="#000000" stroke="none">
<path d="M343 2345 c-61 -31 -98 -80 -113 -152 -7 -33 -10 -139 -8 -286 3
-227 4 -234 29 -282 15 -30 42 -62 68 -80 l43 -30 271 -3 c299 -4 326 0 384
51 69 60 73 80 73 367 0 140 -4 271 -10 290 -13 49 -66 109 -114 131 -37 17
-70 19 -307 19 -264 0 -265 0 -316 -25z"/>
<path d="M1634 2351 c-48 -22 -101 -82 -114 -131 -6 -19 -10 -150 -10 -290 0
-287 4 -307 73 -367 58 -51 85 -55 384 -51 l271 3 43 30 c26 18 53 50 68 80
25 48 26 56 29 276 2 134 -1 249 -7 284 -14 77 -51 128 -114 160 -51 25 -52
25 -316 25 -237 0 -270 -2 -307 -19z"/>
<path d="M341 1068 c-54 -26 -96 -84 -110 -149 -14 -63 -14 -459 0 -519 15
-66 53 -115 112 -145 51 -25 52 -25 316 -25 237 0 270 2 307 19 48 22 101 82
114 131 6 19 10 150 10 290 0 281 -5 304 -66 362 -59 55 -80 58 -371 58 -254
0 -270 -1 -312 -22z"/>
</g>
</svg>
